<svg width="12" height="16" viewBox="0 0 12 16" fill="none" xmlns="http://www.w3.org/2000/svg">
<path d="M9.74444 3.5046C9.22459 3.50495 8.72092 3.6854 8.31911 4.01524C7.91731 4.34509 7.6422 4.80396 7.54059 5.31378C7.43898 5.8236 7.51715 6.35288 7.76179 6.81157C8.00643 7.27025 8.40244 7.63001 8.88243 7.82963C8.76832 8.10318 8.57568 8.33676 8.32886 8.50087C8.08204 8.66497 7.79211 8.75222 7.49572 8.75161H4.49743C3.96902 8.75382 3.45103 8.89886 2.99829 9.17137V4.86882C3.49842 4.692 3.91993 4.34407 4.18833 3.88653C4.45674 3.42898 4.55475 2.89128 4.46505 2.36845C4.37535 1.84563 4.10371 1.37135 3.69814 1.02944C3.29257 0.687528 2.77918 0.5 2.24872 0.5C1.71826 0.5 1.20487 0.687528 0.799303 1.02944C0.393733 1.37135 0.122092 1.84563 0.0323894 2.36845C-0.0573128 2.89128 0.0406998 3.42898 0.309104 3.88653C0.577509 4.34407 0.999023 4.692 1.49915 4.86882V11.1352C1.00517 11.3129 0.588912 11.6578 0.322508 12.1101C0.0561039 12.5624 -0.0436555 13.0937 0.0405183 13.6119C0.124692 14.13 0.387494 14.6024 0.783381 14.9471C1.17927 15.2919 1.68329 15.4872 2.2081 15.4994C2.73291 15.5115 3.24543 15.3397 3.65684 15.0136C4.06826 14.6876 4.35263 14.2279 4.46069 13.7142C4.56875 13.2005 4.49368 12.6651 4.24849 12.201C4.00331 11.7368 3.60345 11.373 3.11822 11.1727C3.23184 10.9004 3.42332 10.6676 3.66867 10.5036C3.91402 10.3396 4.20232 10.2516 4.49743 10.2508H7.49572C8.18145 10.2506 8.84642 10.0154 9.37975 9.58439C9.91308 9.15336 10.2825 8.55254 10.4265 7.8821C10.9277 7.71182 11.3527 7.37023 11.6268 6.91744C11.9009 6.46465 12.0065 5.92969 11.925 5.40672C11.8435 4.88374 11.5802 4.40627 11.1813 4.05835C10.7824 3.71042 10.2736 3.51433 9.74444 3.5046ZM2.24872 2.00546C2.39697 2.00546 2.54189 2.04942 2.66516 2.13179C2.78843 2.21415 2.8845 2.33122 2.94123 2.46818C2.99797 2.60515 3.01281 2.75586 2.98389 2.90127C2.95497 3.04667 2.88358 3.18023 2.77875 3.28506C2.67392 3.38989 2.54036 3.46128 2.39495 3.4902C2.24955 3.51912 2.09884 3.50428 1.96187 3.44755C1.8249 3.39081 1.70784 3.29474 1.62547 3.17147C1.54311 3.04821 1.49915 2.90328 1.49915 2.75503C1.49915 2.55623 1.57812 2.36558 1.71869 2.22501C1.85926 2.08443 2.04992 2.00546 2.24872 2.00546ZM2.24872 13.9986C2.10047 13.9986 1.95555 13.9546 1.83228 13.8723C1.70901 13.7899 1.61294 13.6729 1.55621 13.5359C1.49947 13.3989 1.48463 13.2482 1.51355 13.1028C1.54247 12.9574 1.61386 12.8238 1.71869 12.719C1.82352 12.6142 1.95708 12.5428 2.10249 12.5139C2.24789 12.4849 2.3986 12.4998 2.53557 12.5565C2.67253 12.6133 2.7896 12.7093 2.87197 12.8326C2.95433 12.9559 2.99829 13.1008 2.99829 13.249C2.99829 13.4478 2.91932 13.6385 2.77875 13.7791C2.63817 13.9196 2.44752 13.9986 2.24872 13.9986ZM9.74444 6.50289C9.59618 6.50289 9.45126 6.45893 9.328 6.37657C9.20473 6.2942 9.10865 6.17713 9.05192 6.04017C8.99519 5.9032 8.98034 5.75249 9.00927 5.60709C9.03819 5.46168 9.10958 5.32812 9.21441 5.22329C9.31924 5.11846 9.4528 5.04707 9.5982 5.01815C9.7436 4.98923 9.89432 5.00407 10.0313 5.06081C10.1683 5.11754 10.2853 5.21361 10.3677 5.33688C10.45 5.46015 10.494 5.60507 10.494 5.75332C10.494 5.95212 10.415 6.14278 10.2745 6.28335C10.1339 6.42392 9.94323 6.50289 9.74444 6.50289Z" fill="#0C4E42"/>
</svg>
