<svg width="14" height="16" viewBox="0 0 14 16" fill="none" xmlns="http://www.w3.org/2000/svg">
<path d="M12.75 0.5C12.5511 0.5 12.3603 0.579018 12.2197 0.71967C12.079 0.860322 12 1.05109 12 1.25V1.72775C11.3674 2.512 10.568 3.14533 9.65978 3.58165C8.7516 4.01796 7.75755 4.24629 6.75 4.25H2.25C1.65345 4.2506 1.0815 4.48784 0.659668 4.90967C0.23784 5.33149 0.000595661 5.90345 0 6.5V8C0.000595661 8.59655 0.23784 9.1685 0.659668 9.59033C1.0815 10.0122 1.65345 10.2494 2.25 10.25H2.613L0.81075 14.4545C0.761825 14.5686 0.742004 14.6931 0.753064 14.8168C0.764123 14.9405 0.805719 15.0595 0.874117 15.1631C0.942516 15.2668 1.03558 15.3518 1.14495 15.4106C1.25432 15.4694 1.37658 15.5001 1.50075 15.5H4.50075C4.6474 15.4999 4.7908 15.4568 4.91319 15.376C5.03557 15.2953 5.13156 15.1803 5.18925 15.0455L7.23225 10.2785C8.15519 10.3463 9.05443 10.6025 9.87446 11.0315C10.6945 11.4604 11.4179 12.0528 12 12.7722V13.25C12 13.4489 12.079 13.6397 12.2197 13.7803C12.3603 13.921 12.5511 14 12.75 14C12.9489 14 13.1397 13.921 13.2803 13.7803C13.421 13.6397 13.5 13.4489 13.5 13.25V1.25C13.5 1.05109 13.421 0.860322 13.2803 0.71967C13.1397 0.579018 12.9489 0.5 12.75 0.5ZM2.25 8.75C2.05109 8.75 1.86032 8.67098 1.71967 8.53033C1.57902 8.38968 1.5 8.19891 1.5 8V6.5C1.5 6.30109 1.57902 6.11032 1.71967 5.96967C1.86032 5.82902 2.05109 5.75 2.25 5.75H3V8.75H2.25ZM4.00575 14H2.63775L4.24425 10.25H5.613L4.00575 14ZM12.0007 10.6415C10.522 9.42317 8.66676 8.75478 6.75075 8.75H4.50075V5.75H6.75075C8.66675 5.74516 10.5219 5.07677 12.0007 3.8585V10.6415Z" fill="#1C6031"/>
</svg>
