<svg width="7" height="11" viewBox="0 0 7 11" fill="none" xmlns="http://www.w3.org/2000/svg">
<path d="M0.303362 6.10278L4.65208 10.4515C4.74743 10.5476 4.86086 10.6239 4.98585 10.676C5.11083 10.7281 5.24489 10.7549 5.38028 10.7549C5.51568 10.7549 5.64974 10.7281 5.77472 10.676C5.89971 10.6239 6.01314 10.5476 6.10849 10.4515C6.29952 10.2593 6.40674 9.99938 6.40674 9.72842C6.40674 9.45746 6.29952 9.19751 6.10849 9.00535L2.47772 5.37458L6.10849 1.74381C6.29952 1.55164 6.40674 1.29169 6.40674 1.02073C6.40674 0.74977 6.29952 0.48982 6.10849 0.297652C6.01265 0.202595 5.899 0.12739 5.77404 0.0763492C5.64907 0.0253085 5.51527 -0.000562746 5.38029 0.000217348C5.2453 -0.000562769 5.1115 0.0253085 4.98654 0.0763491C4.86157 0.12739 4.74792 0.202595 4.65208 0.297652L0.303362 4.64637C0.20723 4.74172 0.130929 4.85515 0.0788579 4.98014C0.0267873 5.10512 -2.09755e-05 5.23918 -2.09873e-05 5.37458C-2.09991e-05 5.50997 0.0267873 5.64403 0.0788579 5.76901C0.130928 5.894 0.20723 6.00743 0.303362 6.10278Z" fill="#4FA1EE"/>
</svg>
