<svg width="7" height="11" viewBox="0 0 7 11" fill="none" xmlns="http://www.w3.org/2000/svg">
<path d="M6.10338 4.6521L1.75466 0.303383C1.65931 0.207251 1.54588 0.130949 1.42089 0.0788786C1.29591 0.0268082 1.16185 0 1.02645 0C0.891057 0 0.757 0.0268082 0.632016 0.0788786C0.507032 0.130949 0.393595 0.207251 0.298249 0.303383C0.107222 0.495549 0 0.7555 0 1.02646C0 1.29742 0.107222 1.55737 0.298249 1.74954L3.92902 5.38031L0.298249 9.01108C0.107222 9.20324 0 9.46319 0 9.73415C0 10.0051 0.107222 10.2651 0.298249 10.4572C0.394085 10.5523 0.507742 10.6275 0.632704 10.6785C0.757665 10.7296 0.891473 10.7554 1.02645 10.7547C1.16144 10.7554 1.29524 10.7296 1.4202 10.6785C1.54517 10.6275 1.65882 10.5523 1.75466 10.4572L6.10338 6.10851C6.19951 6.01316 6.27581 5.89973 6.32788 5.77474C6.37995 5.64976 6.40676 5.5157 6.40676 5.38031C6.40676 5.24491 6.37995 5.11085 6.32788 4.98587C6.27581 4.86088 6.19951 4.74745 6.10338 4.6521Z" fill="#4FA1EE"/>
</svg>
