<svg width="40" height="45" viewBox="0 0 40 45" fill="none" xmlns="http://www.w3.org/2000/svg">
<path d="M39.4815 11.2508C39.1683 10.7071 38.7352 10.2327 38.259 9.95708L21.7291 0.413433C20.7748 -0.137811 19.2167 -0.137811 18.2642 0.413433L1.73061 9.95708C0.778117 10.5065 0 11.8564 0 12.9571V32.0444C0 32.5956 0.194998 33.2068 0.50812 33.7506C0.821242 34.2943 1.25436 34.7687 1.73061 35.0443L18.2604 44.588C19.2129 45.1373 20.7729 45.1373 21.7254 44.588L38.2552 35.0443C38.7315 34.7687 39.1646 34.2943 39.4777 33.7506C39.7908 33.2068 39.984 32.5956 39.984 32.0444V12.9571C39.9896 12.4058 39.7965 11.7946 39.4815 11.2508ZM19.9929 35.8318C12.643 35.8318 6.66368 29.8506 6.66368 22.5007C6.66368 15.1508 12.6449 9.16959 19.9948 9.16959C22.3332 9.17404 24.6296 9.79151 26.6549 10.9604C28.6801 12.1293 30.3635 13.8088 31.5372 15.8314L25.7697 19.1689C25.1834 18.1559 24.3414 17.3145 23.328 16.7288C22.3146 16.1432 21.1653 15.8337 19.9948 15.8314C18.2264 15.8329 16.5309 16.536 15.2805 17.7864C14.0301 19.0369 13.327 20.7323 13.3255 22.5007C13.328 24.2681 14.0313 25.9623 15.2812 27.2119C16.5311 28.4614 18.2255 29.1643 19.9929 29.1663C21.1629 29.1637 22.3118 28.8546 23.3251 28.2697C24.3383 27.6848 25.1806 26.8445 25.7679 25.8325L31.5391 29.17C30.3648 31.1929 28.6807 32.8725 26.6548 34.0414C24.6289 35.2103 22.3319 35.8277 19.9929 35.8318ZM33.324 23.2413H31.8428V24.7226H30.3616V23.2413H28.8803V21.7601H30.3616V20.2789H31.8428V21.7601H33.324V23.2413ZM38.8777 23.2413H37.3965V24.7226H35.9153V23.2413H34.434V21.7601H35.9153V20.2789H37.3965V21.7601H38.8777V23.2413Z" fill="#4C2E88"/>
</svg>
