<svg width="15" height="16" viewBox="0 0 15 16" fill="none" xmlns="http://www.w3.org/2000/svg">
<path d="M4.12352 10.3992C3.99653 10.527 3.92525 10.6998 3.92525 10.8799C3.92525 11.0601 3.99653 11.2329 4.12352 11.3606C4.1869 11.4245 4.26231 11.4752 4.3454 11.5099C4.42848 11.5445 4.5176 11.5623 4.60761 11.5623C4.69762 11.5623 4.78673 11.5445 4.86982 11.5099C4.95291 11.4752 5.02832 11.4245 5.0917 11.3606C5.21869 11.2329 5.28997 11.0601 5.28997 10.8799C5.28997 10.6998 5.21869 10.527 5.0917 10.3992C5.02832 10.3353 4.95291 10.2846 4.86982 10.25C4.78673 10.2154 4.69762 10.1976 4.60761 10.1976C4.5176 10.1976 4.42848 10.2154 4.3454 10.25C4.26231 10.2846 4.1869 10.3353 4.12352 10.3992ZM4.12352 4.61061C3.99653 4.73836 3.92525 4.91117 3.92525 5.09129C3.92525 5.27142 3.99653 5.44423 4.12352 5.57198C4.1869 5.63588 4.26231 5.6866 4.3454 5.72122C4.42848 5.75583 4.5176 5.77366 4.60761 5.77366C4.69762 5.77366 4.78673 5.75583 4.86982 5.72122C4.95291 5.6866 5.02832 5.63588 5.0917 5.57198C5.21869 5.44423 5.28997 5.27142 5.28997 5.09129C5.28997 4.91117 5.21869 4.73836 5.0917 4.61061C5.02832 4.54671 4.95291 4.49598 4.86982 4.46137C4.78673 4.42675 4.69762 4.40893 4.60761 4.40893C4.5176 4.40893 4.42848 4.42675 4.3454 4.46137C4.26231 4.49598 4.1869 4.54671 4.12352 4.61061ZM7.49852 11.4288C7.36367 11.4288 7.23184 11.4688 7.11972 11.5437C7.0076 11.6186 6.9202 11.7251 6.8686 11.8497C6.81699 11.9743 6.80349 12.1114 6.8298 12.2436C6.85611 12.3759 6.92104 12.4974 7.0164 12.5927C7.11175 12.6881 7.23324 12.753 7.3655 12.7793C7.49776 12.8056 7.63485 12.7921 7.75944 12.7405C7.88402 12.6889 7.99051 12.6015 8.06543 12.4894C8.14035 12.3773 8.18034 12.2455 8.18034 12.1106C8.18496 12.0182 8.17074 11.9259 8.13856 11.8392C8.10637 11.7525 8.05688 11.6733 7.9931 11.6063C7.92932 11.5393 7.85258 11.486 7.76756 11.4497C7.68253 11.4133 7.591 11.3946 7.49852 11.3947V11.4288ZM3.40761 7.33788C3.27276 7.33788 3.14094 7.37787 3.02881 7.45279C2.91669 7.52771 2.8293 7.6342 2.77769 7.75878C2.72609 7.88337 2.71258 8.02046 2.73889 8.15272C2.7652 8.28498 2.83014 8.40647 2.92549 8.50182C3.02085 8.59717 3.14233 8.66211 3.27459 8.68842C3.40685 8.71473 3.54394 8.70123 3.66853 8.64962C3.79312 8.59801 3.8996 8.51062 3.97452 8.3985C4.04944 8.28638 4.08943 8.15455 4.08943 8.0197C4.09405 7.92734 4.07984 7.835 4.04765 7.7483C4.01546 7.6616 3.96597 7.58236 3.90219 7.51539C3.83841 7.44842 3.76168 7.39513 3.67665 7.35875C3.59163 7.32238 3.50009 7.30368 3.40761 7.30379V7.33788ZM7.49852 3.24698C7.36367 3.24698 7.23184 3.28696 7.11972 3.36188C7.0076 3.4368 6.9202 3.54329 6.8686 3.66787C6.81699 3.79246 6.80349 3.92955 6.8298 4.06181C6.85611 4.19407 6.92104 4.31556 7.0164 4.41091C7.11175 4.50627 7.23324 4.5712 7.3655 4.59751C7.49776 4.62382 7.63485 4.61032 7.75944 4.55871C7.88402 4.50711 7.99051 4.41972 8.06543 4.30759C8.14035 4.19547 8.18034 4.06364 8.18034 3.92879C8.18496 3.83643 8.17074 3.74409 8.13856 3.65739C8.10637 3.57069 8.05688 3.49145 7.9931 3.42448C7.92932 3.35751 7.85258 3.30422 7.76756 3.26784C7.68253 3.23147 7.591 3.21277 7.49852 3.21288V3.24698ZM9.91215 4.6447C9.81639 4.73989 9.75105 4.86138 9.72442 4.99375C9.69778 5.12612 9.71104 5.26341 9.76253 5.38824C9.81402 5.51306 9.9014 5.61978 10.0136 5.69488C10.1258 5.76998 10.2578 5.81007 10.3928 5.81007C10.5279 5.81007 10.6598 5.76998 10.7721 5.69488C10.8843 5.61978 10.9717 5.51306 11.0231 5.38824C11.0746 5.26341 11.0879 5.12612 11.0613 4.99375C11.0346 4.86138 10.9693 4.73989 10.8735 4.6447C10.7503 4.51308 10.58 4.4356 10.3999 4.42921C10.2197 4.42283 10.0444 4.48805 9.91215 4.61061V4.6447ZM14.2076 4.6447C13.5842 3.39854 12.6261 2.35067 11.4405 1.61859C10.255 0.88651 8.88889 0.499169 7.49552 0.500001C6.10215 0.500834 4.73655 0.889807 3.55187 1.6233C2.36719 2.3568 1.41026 3.40582 0.788392 4.65272C0.166524 5.89963 -0.0956945 7.29511 0.0311406 8.6827C0.157976 10.0703 0.668849 11.3951 1.50647 12.5086C2.3441 13.6221 3.47535 14.4803 4.77339 14.9868C6.07142 15.4934 7.4849 15.6283 8.85533 15.3765C9.19995 15.3117 9.52819 15.1788 9.82087 14.9856C10.1135 14.7925 10.3648 14.5429 10.5599 14.2515C10.7701 13.9347 10.9152 13.5793 10.9866 13.2058C11.058 12.8324 11.0543 12.4485 10.9758 12.0765C10.9329 11.8517 10.91 11.6235 10.9076 11.3947C10.9106 10.734 11.1055 10.0884 11.4687 9.53642C11.8318 8.98444 12.3475 8.54989 12.9531 8.28561C13.2796 8.13942 13.5726 7.92788 13.8142 7.66402C14.0558 7.40017 14.2407 7.08962 14.3576 6.75152C14.4758 6.40603 14.5235 6.04032 14.4977 5.67608C14.4719 5.31183 14.3733 4.95647 14.2076 4.63107V4.6447ZM13.0485 6.30834C12.9903 6.47151 12.9 6.62135 12.7829 6.74901C12.6658 6.87666 12.5243 6.97953 12.3667 7.05152C11.528 7.42693 10.8156 8.03644 10.3149 8.80686C9.81416 9.57728 9.54648 10.4759 9.54397 11.3947C9.54498 11.7152 9.57695 12.0349 9.63943 12.3492C9.68107 12.5414 9.68382 12.7399 9.64752 12.9331C9.61122 13.1263 9.5366 13.3103 9.42806 13.4742C9.33622 13.6177 9.21538 13.7403 9.07329 13.8343C8.9312 13.9282 8.77103 13.9914 8.60306 14.0197C8.23887 14.0881 7.86908 14.1224 7.49852 14.122C6.67636 14.1224 5.8625 13.9576 5.10528 13.6373C4.34806 13.3171 3.66292 12.8479 3.09054 12.2577C2.51816 11.6675 2.07021 10.9683 1.7733 10.2017C1.47639 9.43498 1.33658 8.61646 1.36216 7.7947C1.41507 6.26252 2.03648 4.8049 3.10531 3.70581C4.17415 2.60673 5.61386 1.9449 7.14397 1.84925H7.4917C8.63426 1.84954 9.75405 2.16881 10.725 2.77111C11.6959 3.37341 12.4793 4.23483 12.9872 5.25834C13.1435 5.58219 13.1655 5.95467 13.0485 6.2947V6.30834ZM7.49852 7.30379C7.36367 7.30379 7.23184 7.34378 7.11972 7.4187C7.0076 7.49362 6.9202 7.6001 6.8686 7.72469C6.81699 7.84928 6.80349 7.98637 6.8298 8.11863C6.85611 8.25089 6.92104 8.37238 7.0164 8.46773C7.11175 8.56308 7.23324 8.62802 7.3655 8.65433C7.49776 8.68064 7.63485 8.66713 7.75944 8.61553C7.88402 8.56392 7.99051 8.47653 8.06543 8.36441C8.14035 8.25228 8.18034 8.12046 8.18034 7.98561C8.18034 7.80478 8.1085 7.63136 7.98063 7.50349C7.85277 7.37563 7.67935 7.30379 7.49852 7.30379Z" fill="#4C2E88"/>
</svg>
