<svg width="15" height="17" viewBox="0 0 15 17" fill="none" xmlns="http://www.w3.org/2000/svg">
<path d="M14.4 6.052C14.3917 5.97851 14.3756 5.9061 14.352 5.836V5.764C14.3135 5.68174 14.2622 5.60613 14.2 5.54L9.4 0.74C9.33387 0.677773 9.25826 0.626465 9.176 0.588C9.15212 0.584608 9.12788 0.584608 9.104 0.588C9.02273 0.541393 8.93298 0.511475 8.84 0.5H5.6C4.96348 0.5 4.35303 0.752856 3.90294 1.20294C3.45286 1.65303 3.2 2.26348 3.2 2.9V3.7H2.4C1.76348 3.7 1.15303 3.95286 0.702944 4.40294C0.252856 4.85303 0 5.46348 0 6.1V14.1C0 14.7365 0.252856 15.347 0.702944 15.7971C1.15303 16.2471 1.76348 16.5 2.4 16.5H8.8C9.43652 16.5 10.047 16.2471 10.4971 15.7971C10.9471 15.347 11.2 14.7365 11.2 14.1V13.3H12C12.6365 13.3 13.247 13.0471 13.6971 12.5971C14.1471 12.147 14.4 11.5365 14.4 10.9V6.1V6.052ZM9.6 3.228L11.672 5.3H10.4C10.1878 5.3 9.98434 5.21571 9.83431 5.06569C9.68429 4.91566 9.6 4.71217 9.6 4.5V3.228ZM9.6 14.1C9.6 14.3122 9.51571 14.5157 9.36568 14.6657C9.21566 14.8157 9.01217 14.9 8.8 14.9H2.4C2.18783 14.9 1.98434 14.8157 1.83431 14.6657C1.68429 14.5157 1.6 14.3122 1.6 14.1V6.1C1.6 5.88783 1.68429 5.68434 1.83431 5.53431C1.98434 5.38429 2.18783 5.3 2.4 5.3H3.2V10.9C3.2 11.5365 3.45286 12.147 3.90294 12.5971C4.35303 13.0471 4.96348 13.3 5.6 13.3H9.6V14.1ZM12.8 10.9C12.8 11.1122 12.7157 11.3157 12.5657 11.4657C12.4157 11.6157 12.2122 11.7 12 11.7H5.6C5.38783 11.7 5.18434 11.6157 5.03431 11.4657C4.88429 11.3157 4.8 11.1122 4.8 10.9V2.9C4.8 2.68783 4.88429 2.48434 5.03431 2.33431C5.18434 2.18429 5.38783 2.1 5.6 2.1H8V4.5C8 5.13652 8.25286 5.74697 8.70294 6.19706C9.15303 6.64714 9.76348 6.9 10.4 6.9H12.8V10.9Z" fill="#A2AEBA"/>
</svg>
