<svg width="30" height="22" viewBox="0 0 30 22" fill="none" xmlns="http://www.w3.org/2000/svg">
<path d="M28.3111 7.75251L26.9292 6.99246L14.492 0.0829145H14.34C14.2553 0.0470937 14.1674 0.019333 14.0774 0H13.5661C13.4717 0.0193457 13.3792 0.0470943 13.2898 0.0829145H13.1377L0.700557 6.99246C0.487884 7.11299 0.310988 7.28777 0.187916 7.49898C0.0648436 7.71019 0 7.95027 0 8.19472C0 8.43918 0.0648436 8.67925 0.187916 8.89046C0.310988 9.10167 0.487884 9.27646 0.700557 9.39699L4.14151 11.304V17.8543C4.14151 18.9538 4.57829 20.0083 5.35577 20.7857C6.13324 21.5632 7.18772 22 8.28724 22H19.3425C20.442 22 21.4965 21.5632 22.274 20.7857C23.0515 20.0083 23.4882 18.9538 23.4882 17.8543V11.304L26.2521 9.75628V13.7085C26.2521 14.075 26.3977 14.4265 26.6568 14.6857C26.916 14.9449 27.2675 15.0905 27.634 15.0905C28.0005 15.0905 28.352 14.9449 28.6111 14.6857C28.8703 14.4265 29.0159 14.075 29.0159 13.7085V8.95477C29.0155 8.7099 28.95 8.46954 28.8261 8.2583C28.7023 8.04705 28.5246 7.8725 28.3111 7.75251ZM20.7244 17.8543C20.7244 18.2208 20.5788 18.5723 20.3197 18.8314C20.0605 19.0906 19.709 19.2362 19.3425 19.2362H8.28724C7.92074 19.2362 7.56924 19.0906 7.31008 18.8314C7.05092 18.5723 6.90533 18.2208 6.90533 17.8543V12.8379L13.1377 16.2927L13.345 16.3756H13.4694C13.5841 16.3901 13.7002 16.3901 13.8149 16.3756C13.9296 16.3901 14.0457 16.3901 14.1604 16.3756H14.2847C14.3581 16.3602 14.4282 16.3321 14.492 16.2927L20.7244 12.8379V17.8543ZM13.8149 13.5151L4.22443 8.1809L13.8149 2.84673L23.4053 8.1809L13.8149 13.5151Z" fill="#4FA1EE"/>
</svg>
