<svg width="34" height="12" viewBox="0 0 34 12" fill="none" xmlns="http://www.w3.org/2000/svg">
<path d="M33.0304 1.65707H29.735V11.7584H27.8322V1.65707H24.5448V0.00133581H33.0304V1.65707ZM23.8811 11.7584H17.4438V0.00133581H23.6261V1.65707H19.3465V4.98724H23.2896V6.63496H19.3465V10.112H23.8811V11.7584ZM14.9241 11.7584H12.8438L7.36649 3.11652C7.22948 2.90144 7.11408 2.67334 7.02199 2.43553H6.97392C7.01664 2.6879 7.03801 3.22602 7.03801 4.05121V11.7584H5.19934V0.00133581H7.41456L12.7089 8.44025C12.9319 8.78876 13.0761 9.03044 13.1402 9.1613H13.1722C13.1188 8.85018 13.0921 8.32141 13.0921 7.579V0H14.9241V11.7584ZM3.30325 10.8331C3.30325 10.9785 3.27323 11.1226 3.2149 11.257C3.15657 11.3913 3.07108 11.5134 2.96331 11.6162C2.85555 11.719 2.72762 11.8006 2.58685 11.8561C2.44608 11.9117 2.29522 11.9402 2.1429 11.94C1.99058 11.94 1.83975 11.9113 1.69904 11.8556C1.55833 11.7999 1.4305 11.7182 1.32286 11.6153C1.21522 11.5124 1.12987 11.3902 1.07171 11.2557C1.01355 11.1213 0.983704 10.9772 0.983888 10.8317C0.984258 10.5384 1.10653 10.2572 1.32385 10.0499C1.54117 9.84256 1.83576 9.72612 2.1429 9.72612C2.29522 9.72595 2.44608 9.75446 2.58685 9.81001C2.72762 9.86557 2.85555 9.94708 2.96331 10.0499C3.07108 10.1527 3.15657 10.2748 3.2149 10.4092C3.27323 10.5435 3.30325 10.6876 3.30325 10.8331Z" fill="#4FA1EE"/>
</svg>
