<svg width="16" height="16" viewBox="0 0 16 16" fill="none" xmlns="http://www.w3.org/2000/svg">
<path d="M15.6742 6.17125C15.6247 6.02786 15.5346 5.90191 15.415 5.80867C15.2953 5.71544 15.1512 5.65893 15 5.646L10.5393 4.99531L8.54017 0.94224C8.47598 0.809695 8.37575 0.697912 8.25096 0.619698C8.12617 0.541483 7.98188 0.5 7.83461 0.5C7.68734 0.5 7.54304 0.541483 7.41825 0.619698C7.29347 0.697912 7.19324 0.809695 7.12904 0.94224L5.12995 4.98747L0.669212 5.646C0.524118 5.66662 0.387711 5.7275 0.275468 5.82173C0.163225 5.91596 0.0796423 6.03976 0.034204 6.17909C-0.00738902 6.31525 -0.0111215 6.46016 0.0234071 6.59827C0.0579357 6.73639 0.129422 6.86249 0.230194 6.96305L3.46795 10.0989L2.68399 14.5518C2.65234 14.6995 2.66404 14.8532 2.71769 14.9944C2.77134 15.1357 2.86464 15.2584 2.98639 15.3478C3.10813 15.4373 3.25312 15.4896 3.40392 15.4986C3.55472 15.5076 3.70491 15.4728 3.83641 15.3985L7.83461 13.3053L11.8328 15.3985C11.9428 15.4605 12.0671 15.493 12.1934 15.4925C12.3595 15.4931 12.5215 15.441 12.656 15.3436C12.7776 15.2565 12.8717 15.1363 12.9273 14.9974C12.9829 14.8585 12.9975 14.7066 12.9695 14.5596L12.1856 10.1067L15.4233 6.97089C15.5365 6.875 15.6202 6.74896 15.6646 6.60741C15.709 6.46586 15.7123 6.31462 15.6742 6.17125ZM10.8529 9.30709C10.7621 9.39522 10.694 9.50399 10.6545 9.62412C10.6149 9.74425 10.6049 9.87218 10.6255 9.99698L11.19 13.2896L8.24227 11.7217C8.12771 11.665 8.00162 11.6355 7.87381 11.6355C7.74599 11.6355 7.6199 11.665 7.50534 11.7217L4.55765 13.2896L5.12211 9.99698C5.14268 9.87218 5.13274 9.74425 5.09315 9.62412C5.05356 9.50399 4.9855 9.39522 4.89476 9.30709L2.54288 6.95521L5.84335 6.477C5.97035 6.45933 6.09108 6.41079 6.19495 6.33561C6.29883 6.26044 6.38268 6.16094 6.43916 6.04582L7.83461 3.05893L9.30845 6.05366C9.36493 6.16878 9.44878 6.26828 9.55266 6.34345C9.65653 6.41863 9.77726 6.46717 9.90426 6.48484L13.2047 6.96305L10.8529 9.30709Z" fill="#C09600"/>
</svg>
