<svg width="17" height="16" viewBox="0 0 17 16" fill="none" xmlns="http://www.w3.org/2000/svg">
<path d="M14.1667 3H11.6667V2.16667C11.6667 1.72464 11.4911 1.30072 11.1785 0.988155C10.8659 0.675595 10.442 0.5 10 0.5H6.66667C6.22464 0.5 5.80072 0.675595 5.48816 0.988155C5.17559 1.30072 5 1.72464 5 2.16667V3H2.5C1.83696 3 1.20107 3.26339 0.732233 3.73223C0.263392 4.20107 0 4.83696 0 5.5V13C0 13.663 0.263392 14.2989 0.732233 14.7678C1.20107 15.2366 1.83696 15.5 2.5 15.5H14.1667C14.8297 15.5 15.4656 15.2366 15.9344 14.7678C16.4033 14.2989 16.6667 13.663 16.6667 13V5.5C16.6667 4.83696 16.4033 4.20107 15.9344 3.73223C15.4656 3.26339 14.8297 3 14.1667 3ZM6.66667 2.16667H10V3H6.66667V2.16667ZM15 13C15 13.221 14.9122 13.433 14.7559 13.5893C14.5996 13.7455 14.3877 13.8333 14.1667 13.8333H2.5C2.27899 13.8333 2.06702 13.7455 1.91074 13.5893C1.75446 13.433 1.66667 13.221 1.66667 13V8.83333H5V9.66667C5 9.88768 5.0878 10.0996 5.24408 10.2559C5.40036 10.4122 5.61232 10.5 5.83333 10.5C6.05435 10.5 6.26631 10.4122 6.42259 10.2559C6.57887 10.0996 6.66667 9.88768 6.66667 9.66667V8.83333H10V9.66667C10 9.88768 10.0878 10.0996 10.2441 10.2559C10.4004 10.4122 10.6123 10.5 10.8333 10.5C11.0543 10.5 11.2663 10.4122 11.4226 10.2559C11.5789 10.0996 11.6667 9.88768 11.6667 9.66667V8.83333H15V13ZM15 7.16667H1.66667V5.5C1.66667 5.27899 1.75446 5.06702 1.91074 4.91074C2.06702 4.75446 2.27899 4.66667 2.5 4.66667H14.1667C14.3877 4.66667 14.5996 4.75446 14.7559 4.91074C14.9122 5.06702 15 5.27899 15 5.5V7.16667Z" fill="black"/>
</svg>
