<svg width="20" height="16" viewBox="0 0 20 16" fill="none" xmlns="http://www.w3.org/2000/svg">
<path d="M19.303 5.7858L18.3608 5.26759L9.88092 0.556533H9.77728C9.71951 0.532109 9.65957 0.513182 9.59826 0.5H9.24964C9.18527 0.51319 9.1222 0.53211 9.0612 0.556533H8.95755L0.477652 5.26759C0.332648 5.34977 0.212037 5.46894 0.128124 5.61294C0.0442115 5.75695 0 5.92064 0 6.08731C0 6.25398 0.0442115 6.41767 0.128124 6.56168C0.212037 6.70569 0.332648 6.82486 0.477652 6.90704L2.82376 8.20729V12.6734C2.82376 13.423 3.12156 14.142 3.65166 14.6721C4.18176 15.2022 4.90072 15.5 5.65039 15.5H13.1881C13.9378 15.5 14.6567 15.2022 15.1868 14.6721C15.7169 14.142 16.0147 13.423 16.0147 12.6734V8.20729L17.8991 7.15201V9.84673C17.8991 10.0966 17.9984 10.3363 18.1751 10.513C18.3518 10.6897 18.5915 10.7889 18.8414 10.7889C19.0912 10.7889 19.3309 10.6897 19.5076 10.513C19.6843 10.3363 19.7836 10.0966 19.7836 9.84673V6.60553C19.7833 6.43857 19.7386 6.27469 19.6542 6.13066C19.5698 5.98662 19.4486 5.86761 19.303 5.7858ZM14.1303 12.6734C14.1303 12.9233 14.031 13.1629 13.8543 13.3396C13.6776 13.5163 13.438 13.6156 13.1881 13.6156H5.65039C5.4005 13.6156 5.16085 13.5163 4.98415 13.3396C4.80745 13.1629 4.70818 12.9233 4.70818 12.6734V9.25314L8.95755 11.6087L9.09889 11.6652H9.18368C9.26189 11.6751 9.34103 11.6751 9.41924 11.6652C9.49745 11.6751 9.57658 11.6751 9.65479 11.6652H9.73959C9.78961 11.6547 9.83743 11.6355 9.88092 11.6087L14.1303 9.25314V12.6734ZM9.41924 9.71482L2.88029 6.07789L9.41924 2.44095L15.9582 6.07789L9.41924 9.71482Z" fill="#B72025"/>
</svg>
