<svg width="14" height="16" viewBox="0 0 14 16" fill="none" xmlns="http://www.w3.org/2000/svg">
<path d="M12.8851 6.6425C12.3456 6.54488 11.7983 6.49718 11.2501 6.5C10.9351 6.5 10.6276 6.5 10.3201 6.56C9.93728 6.04916 9.44864 5.62703 8.8876 5.3225C9.36951 4.79619 9.63705 4.10861 9.6376 3.395C9.6376 2.6272 9.33259 1.89084 8.78967 1.34793C8.24676 0.805008 7.5104 0.5 6.7426 0.5C5.9748 0.5 5.23844 0.805008 4.69553 1.34793C4.15261 1.89084 3.8476 2.6272 3.8476 3.395C3.84815 4.10861 4.11569 4.79619 4.5976 5.3225C4.0399 5.62862 3.55204 6.04751 3.1651 6.5525C2.8726 6.5 2.5651 6.5 2.2501 6.5C1.70142 6.50213 1.1541 6.55485 0.6151 6.6575C0.440381 6.68945 0.282671 6.78236 0.170049 6.91971C0.0574272 7.05705 -0.0027969 7.22991 9.98324e-05 7.4075V13.595C-7.91042e-05 13.7052 0.0240212 13.8141 0.070687 13.9139C0.117353 14.0137 0.185438 14.102 0.2701 14.1725C0.354228 14.2434 0.452936 14.295 0.55922 14.3235C0.665505 14.352 0.776762 14.3568 0.8851 14.3375C1.33391 14.2398 1.79093 14.1845 2.2501 14.1725C3.70292 14.1709 5.12422 14.596 6.3376 15.395L6.4351 15.4325C6.53458 15.4757 6.64166 15.4986 6.7501 15.5C6.82168 15.4991 6.89263 15.4864 6.9601 15.4625H7.0126L7.1101 15.425C8.33502 14.6055 9.77631 14.1694 11.2501 14.1725C11.7083 14.1746 12.1653 14.2198 12.6151 14.3075C12.7234 14.3268 12.8347 14.322 12.941 14.2935C13.0473 14.265 13.146 14.2134 13.2301 14.1425C13.3148 14.072 13.3828 13.9837 13.4295 13.8839C13.4762 13.7841 13.5003 13.6752 13.5001 13.565V7.3775C13.4995 7.20248 13.4376 7.03319 13.3253 6.89896C13.213 6.76473 13.0573 6.674 12.8851 6.6425ZM6.7501 2C7.10144 2.02581 7.43 2.1836 7.6698 2.44166C7.9096 2.69973 8.04288 3.03897 8.04288 3.39125C8.04288 3.74353 7.9096 4.08277 7.6698 4.34084C7.43 4.5989 7.10144 4.75669 6.7501 4.7825C6.39876 4.75669 6.0702 4.5989 5.8304 4.34084C5.5906 4.08277 5.45732 3.74353 5.45732 3.39125C5.45732 3.03897 5.5906 2.69973 5.8304 2.44166C6.0702 2.1836 6.39876 2.02581 6.7501 2ZM6.0001 13.4975C4.82461 12.9541 3.5451 12.6727 2.2501 12.6725C2.0026 12.6725 1.7551 12.6725 1.5001 12.71V8C2.12902 7.92964 2.76446 7.94225 3.3901 8.0375H3.4726C4.3663 8.20175 5.22271 8.52703 6.0001 8.9975V13.4975ZM6.7501 7.7C6.41659 7.50761 6.07085 7.33725 5.7151 7.19H5.6701C5.4226 7.0925 5.1751 6.995 4.9201 6.92C5.44083 6.50553 6.08461 6.27599 6.7501 6.2675C7.41383 6.27171 8.05742 6.49591 8.5801 6.905C7.94342 7.10377 7.3299 7.3703 6.7501 7.7ZM12.0001 12.71C10.4601 12.5553 8.90668 12.8142 7.5001 13.46V8.96C8.2789 8.5016 9.13584 8.19137 10.0276 8.045H10.1776C10.7806 7.9511 11.3932 7.93597 12.0001 8V12.71Z" fill="#1C6031"/>
</svg>
