<svg width="83" height="83" viewBox="0 0 83 83" fill="none" xmlns="http://www.w3.org/2000/svg">
<g filter="url(#filter0_d)">
<path d="M58 43.75V16.25C58 14.062 57.1308 11.9635 55.5836 10.4164C54.0365 8.86919 51.938 8 49.75 8H22.25C20.062 8 17.9635 8.86919 16.4164 10.4164C14.8692 11.9635 14 14.062 14 16.25V43.75C14 45.938 14.8692 48.0365 16.4164 49.5836C17.9635 51.1308 20.062 52 22.25 52H49.75C51.938 52 54.0365 51.1308 55.5836 49.5836C57.1308 48.0365 58 45.938 58 43.75ZM19.5 16.25C19.5 15.5207 19.7897 14.8212 20.3055 14.3055C20.8212 13.7897 21.5207 13.5 22.25 13.5H49.75C50.4793 13.5 51.1788 13.7897 51.6945 14.3055C52.2103 14.8212 52.5 15.5207 52.5 16.25V28.24L49.53 25.2425C48.21 23.9222 46.4195 23.1803 44.5525 23.18C42.6867 23.1863 40.8984 23.9273 39.575 25.2425L37.0725 27.745L34.845 25.5175C33.3378 24.0345 31.3082 23.2034 29.1938 23.2034C27.0793 23.2034 25.0497 24.0345 23.5425 25.5175L19.5 29.5875V16.25ZM19.83 44.9875C19.6179 44.6092 19.5045 44.1837 19.5 43.75V37.3425L27.42 29.4225C27.6525 29.1889 27.9289 29.0035 28.2333 28.8769C28.5377 28.7504 28.8641 28.6853 29.1938 28.6853C29.5234 28.6853 29.8498 28.7504 30.1542 28.8769C30.4586 29.0035 30.735 29.1889 30.9675 29.4225L33.25 31.65L19.83 44.9875ZM43.48 29.1475C43.6157 28.9984 43.7814 28.8796 43.9663 28.799C44.1511 28.7185 44.3509 28.6779 44.5525 28.68C44.7541 28.6779 44.9539 28.7185 45.1387 28.799C45.3236 28.8796 45.4893 28.9984 45.625 29.1475L52.5 35.995V43.75C52.5 44.4793 52.2103 45.1788 51.6945 45.6945C51.1788 46.2103 50.4793 46.5 49.75 46.5H26.1L43.48 29.1475ZM66.25 19C65.5207 19 64.8212 19.2897 64.3055 19.8055C63.7897 20.3212 63.5 21.0207 63.5 21.75V49.25C63.5 51.438 62.6308 53.5365 61.0836 55.0836C59.5365 56.6308 57.438 57.5 55.25 57.5H27.75C27.0207 57.5 26.3212 57.7897 25.8055 58.3055C25.2897 58.8212 25 59.5207 25 60.25C25 60.9793 25.2897 61.6788 25.8055 62.1945C26.3212 62.7103 27.0207 63 27.75 63H55.25C58.8967 63 62.3941 61.5513 64.9727 58.9727C67.5513 56.3941 69 52.8967 69 49.25V21.75C69 21.0207 68.7103 20.3212 68.1945 19.8055C67.6788 19.2897 66.9793 19 66.25 19Z" fill="#4FA1EE"/>
</g>
<defs>
<filter id="filter0_d" x="0" y="0" width="83" height="83" filterUnits="userSpaceOnUse" color-interpolation-filters="sRGB">
<feFlood flood-opacity="0" result="BackgroundImageFix"/>
<feColorMatrix in="SourceAlpha" type="matrix" values="0 0 0 0 0 0 0 0 0 0 0 0 0 0 0 0 0 0 127 0"/>
<feOffset dy="6"/>
<feGaussianBlur stdDeviation="7"/>
<feColorMatrix type="matrix" values="0 0 0 0 0.2375 0 0 0 0 0.58825 0 0 0 0 1 0 0 0 0.35 0"/>
<feBlend mode="normal" in2="BackgroundImageFix" result="effect1_dropShadow"/>
<feBlend mode="normal" in="SourceGraphic" in2="effect1_dropShadow" result="shape"/>
</filter>
</defs>
</svg>
