<svg width="3" height="15" viewBox="0 0 3 15" fill="none" xmlns="http://www.w3.org/2000/svg">
<path d="M1.45833 9.83333C1.76775 9.83333 2.0645 9.71042 2.28329 9.49162C2.50208 9.27283 2.625 8.97609 2.625 8.66667V1.66667C2.625 1.35725 2.50208 1.0605 2.28329 0.841709C2.0645 0.622917 1.76775 0.5 1.45833 0.5C1.14891 0.5 0.852168 0.622917 0.633376 0.841709C0.414583 1.0605 0.291667 1.35725 0.291667 1.66667V8.66667C0.291667 8.97609 0.414583 9.27283 0.633376 9.49162C0.852168 9.71042 1.14891 9.83333 1.45833 9.83333ZM1.45833 14.5C1.74676 14.5 2.02872 14.4145 2.26854 14.2542C2.50836 14.094 2.69528 13.8662 2.80566 13.5997C2.91603 13.3333 2.94492 13.04 2.88864 12.7572C2.83237 12.4743 2.69348 12.2144 2.48953 12.0105C2.28558 11.8065 2.02573 11.6676 1.74284 11.6114C1.45995 11.5551 1.16673 11.584 0.900253 11.6943C0.633777 11.8047 0.406017 11.9916 0.245773 12.2315C0.0855296 12.4713 0 12.7532 0 13.0417C0 13.4284 0.153645 13.7994 0.427136 14.0729C0.700626 14.3464 1.07156 14.5 1.45833 14.5Z" fill="#1C6031"/>
</svg>
