<svg width="16" height="16" viewBox="0 0 16 16" fill="none" xmlns="http://www.w3.org/2000/svg">
<path d="M7.52081 7.2497C7.3219 7.2497 7.13115 7.32872 6.9905 7.46936C6.84986 7.61001 6.77084 7.80076 6.77084 7.99967V10.2496C6.77084 10.4485 6.84986 10.6392 6.9905 10.7799C7.13115 10.9205 7.3219 10.9995 7.52081 10.9995C7.71971 10.9995 7.91047 10.9205 8.05111 10.7799C8.19176 10.6392 8.27077 10.4485 8.27077 10.2496V7.99967C8.27077 7.80076 8.19176 7.61001 8.05111 7.46936C7.91047 7.32872 7.71971 7.2497 7.52081 7.2497ZM7.52081 4.9998C7.37248 4.9998 7.22748 5.04379 7.10415 5.12619C6.98082 5.2086 6.88469 5.32573 6.82793 5.46277C6.77117 5.59981 6.75631 5.7506 6.78525 5.89608C6.81419 6.04156 6.88562 6.17519 6.9905 6.28007C7.09539 6.38496 7.22902 6.45639 7.3745 6.48532C7.51998 6.51426 7.67077 6.49941 7.80781 6.44265C7.94485 6.38588 8.06197 6.28976 8.14438 6.16643C8.22679 6.0431 8.27077 5.8981 8.27077 5.74977C8.27077 5.55086 8.19176 5.36011 8.05111 5.21946C7.91047 5.07881 7.71971 4.9998 7.52081 4.9998ZM7.52081 0.5C6.53594 0.5 5.56071 0.693985 4.65081 1.07088C3.74091 1.44777 2.91415 2.00019 2.21774 2.6966C0.81128 4.10306 0.0211388 6.01063 0.0211388 7.99967C0.0145825 9.73144 0.614207 11.4109 1.71606 12.747L0.21613 14.2469C0.112067 14.3524 0.0415725 14.4863 0.0135432 14.6318C-0.0144862 14.7772 0.00120512 14.9278 0.0586372 15.0644C0.120928 15.1993 0.221908 15.3127 0.348759 15.3901C0.475611 15.4676 0.622613 15.5056 0.771106 15.4993H7.52081C9.50984 15.4993 11.4174 14.7092 12.8239 13.3027C14.2303 11.8963 15.0205 9.9887 15.0205 7.99967C15.0205 6.01063 14.2303 4.10306 12.8239 2.6966C11.4174 1.29014 9.50984 0.5 7.52081 0.5ZM7.52081 13.9994H2.57853L3.276 13.3019C3.34686 13.2325 3.40323 13.1496 3.44185 13.0582C3.48047 12.9668 3.50057 12.8687 3.50098 12.7695C3.49817 12.5716 3.4173 12.3829 3.276 12.2445C2.29398 11.2636 1.68245 9.97248 1.54559 8.59124C1.40873 7.20999 1.75502 5.82402 2.52545 4.66946C3.29588 3.5149 4.44279 2.66317 5.77077 2.2594C7.09876 1.85563 8.52566 1.92479 9.80837 2.4551C11.0911 2.98541 12.1502 3.94405 12.8054 5.16771C13.4606 6.39137 13.6712 7.80433 13.4014 9.16587C13.1316 10.5274 12.3981 11.7533 11.3258 12.6346C10.2535 13.516 8.90882 13.9983 7.52081 13.9994Z" fill="#F58020"/>
</svg>
