<svg width="16" height="16" viewBox="0 0 16 16" fill="none" xmlns="http://www.w3.org/2000/svg">
<path d="M15.0507 7.24866C15.0528 6.71908 14.915 6.19835 14.6511 5.73919C14.3872 5.28004 14.0067 4.89876 13.548 4.63398C13.5593 4.50399 13.5593 4.37327 13.548 4.24328C13.548 3.64547 13.3106 3.07215 12.8878 2.64944C12.4651 2.22672 11.8918 1.98925 11.294 1.98925H11.1588C11.0336 1.64236 10.8253 1.33147 10.5521 1.08384C10.2788 0.836205 9.949 0.659394 9.59151 0.568909C9.23403 0.478425 8.8598 0.477031 8.50165 0.564849C8.14349 0.652668 7.81236 0.827017 7.53728 1.07261C7.26219 0.827017 6.93106 0.652668 6.57291 0.564849C6.21475 0.477031 5.84053 0.478425 5.48304 0.568909C5.12555 0.659394 4.79572 0.836205 4.52248 1.08384C4.24923 1.33147 4.04092 1.64236 3.9158 1.98925H3.78056C3.18275 1.98925 2.60943 2.22672 2.18671 2.64944C1.764 3.07215 1.52652 3.64547 1.52652 4.24328C1.51521 4.37327 1.51521 4.50399 1.52652 4.63398C1.10011 4.875 0.739062 5.2166 0.474822 5.62904C0.210581 6.04147 0.0511521 6.51224 0.0104133 7.00037C-0.0303255 7.48849 0.0488605 7.97918 0.241078 8.42971C0.433296 8.88024 0.732719 9.27696 1.11328 9.58533C0.867046 10.0446 0.74446 10.56 0.757556 11.081C0.770652 11.6019 0.918981 12.1105 1.18798 12.5568C1.45699 13.0031 1.83742 13.3718 2.29194 13.6267C2.74646 13.8816 3.25945 14.014 3.78056 14.0108H3.9158C4.04092 14.3576 4.24923 14.6685 4.52248 14.9162C4.79572 15.1638 5.12555 15.3406 5.48304 15.4311C5.84053 15.5216 6.21475 15.523 6.57291 15.4352C6.93106 15.3473 7.26219 15.173 7.53728 14.9274C7.81236 15.173 8.14349 15.3473 8.50165 15.4352C8.8598 15.523 9.23403 15.5216 9.59151 15.4311C9.949 15.3406 10.2788 15.1638 10.5521 14.9162C10.8253 14.6685 11.0336 14.3576 11.1588 14.0108H11.294C11.8119 14.0075 12.3202 13.8704 12.7696 13.6128C13.2189 13.3553 13.5941 12.986 13.8586 12.5407C14.1232 12.0955 14.2683 11.5894 14.2797 11.0716C14.291 10.5538 14.1684 10.0418 13.9237 9.58533C14.2742 9.30475 14.5573 8.94922 14.7523 8.54486C14.9474 8.1405 15.0493 7.69759 15.0507 7.24866ZM6.78593 5.40786C6.62229 5.31427 6.45144 5.23387 6.27502 5.16743C6.08571 5.10367 5.87883 5.11771 5.69988 5.20648C5.52093 5.29525 5.38458 5.45147 5.32081 5.64078C5.25704 5.83008 5.27109 6.03697 5.35986 6.21592C5.44863 6.39486 5.60485 6.53122 5.79416 6.59499C6.08338 6.69955 6.33356 6.89033 6.51091 7.14159C6.68827 7.39284 6.78426 7.69246 6.78593 8V9.16458C6.62229 9.07099 6.45144 8.99059 6.27502 8.92415C6.08571 8.86039 5.87883 8.87443 5.69988 8.9632C5.52093 9.05197 5.38458 9.20819 5.32081 9.3975C5.25704 9.5868 5.27109 9.79369 5.35986 9.97264C5.44863 10.1516 5.60485 10.2879 5.79416 10.3517C6.08338 10.4563 6.33356 10.6471 6.51091 10.8983C6.68827 11.1496 6.78426 11.4492 6.78593 11.7567V13.2594C6.78593 13.4587 6.70677 13.6498 6.56587 13.7907C6.42496 13.9316 6.23386 14.0108 6.03459 14.0108C5.88923 14.0098 5.74726 13.9667 5.62591 13.8867C5.50455 13.8067 5.40901 13.6932 5.35086 13.5599C5.47685 13.486 5.59737 13.4032 5.71151 13.312C5.78748 13.2489 5.85028 13.1714 5.8963 13.0839C5.94233 12.9965 5.97069 12.9009 5.97976 12.8025C5.98883 12.7042 5.97843 12.605 5.94916 12.5106C5.9199 12.4162 5.87233 12.3286 5.80918 12.2526C5.74604 12.1766 5.66854 12.1138 5.58113 12.0678C5.49371 12.0218 5.39809 11.9934 5.29972 11.9844C5.20134 11.9753 5.10215 11.9857 5.00779 12.015C4.91343 12.0442 4.82576 12.0918 4.74979 12.1549C4.4785 12.3833 4.13518 12.5084 3.78056 12.5081C3.38202 12.5081 2.9998 12.3497 2.71799 12.0679C2.43619 11.7861 2.27787 11.4039 2.27787 11.0054C2.28146 10.7226 2.3648 10.4465 2.5183 10.209C2.68692 10.2392 2.8579 10.2543 3.02921 10.254C3.22848 10.254 3.41959 10.1749 3.56049 10.034C3.7014 9.89306 3.78056 9.70196 3.78056 9.50269C3.78056 9.30342 3.7014 9.11231 3.56049 8.97141C3.41959 8.8305 3.22848 8.75134 3.02921 8.75134C2.85173 8.75236 2.67572 8.7192 2.51078 8.65367C2.24056 8.55621 2.00393 8.38334 1.82893 8.15553C1.65393 7.92773 1.5479 7.65453 1.52339 7.36832C1.49888 7.0821 1.55692 6.79486 1.69064 6.54062C1.82436 6.28638 2.02815 6.07579 2.27787 5.9338C2.38463 6.03203 2.50034 6.12007 2.62349 6.19677C2.79685 6.29641 3.00269 6.32309 3.19573 6.27096C3.38877 6.21882 3.55319 6.09214 3.65283 5.91878C3.75246 5.74541 3.77915 5.53957 3.72701 5.34653C3.67488 5.15349 3.54819 4.98907 3.37483 4.88944C3.26906 4.83109 3.18085 4.74547 3.11937 4.64149C3.04991 4.52086 3.01848 4.38207 3.02921 4.24328C3.02921 4.04401 3.10837 3.8529 3.24927 3.712C3.39018 3.57109 3.58129 3.49194 3.78056 3.49194C3.8329 3.48463 3.886 3.48463 3.93834 3.49194C3.97811 3.61265 4.0258 3.73062 4.08109 3.84507C4.13018 3.93116 4.19581 4.00669 4.27421 4.06732C4.35261 4.12794 4.44223 4.17245 4.53791 4.19829C4.63358 4.22413 4.73343 4.23079 4.83169 4.21788C4.92995 4.20496 5.02468 4.17274 5.11043 4.12306C5.27701 4.02284 5.39826 3.86195 5.4487 3.67421C5.49914 3.48646 5.47484 3.28647 5.38092 3.11626C5.31788 3.00101 5.28432 2.87195 5.28324 2.74059C5.28324 2.54132 5.3624 2.35022 5.50331 2.20931C5.64421 2.06841 5.83532 1.98925 6.03459 1.98925C6.23386 1.98925 6.42496 2.06841 6.56587 2.20931C6.70677 2.35022 6.78593 2.54132 6.78593 2.74059V5.40786ZM12.5638 8.65367C12.3988 8.7192 12.2228 8.75236 12.0453 8.75134C11.8461 8.75134 11.655 8.8305 11.5141 8.97141C11.3732 9.11231 11.294 9.30342 11.294 9.50269C11.294 9.70196 11.3732 9.89306 11.5141 10.034C11.655 10.1749 11.8461 10.254 12.0453 10.254C12.2167 10.2543 12.3876 10.2392 12.5563 10.209C12.7098 10.4465 12.7931 10.7226 12.7967 11.0054C12.7967 11.4039 12.6384 11.7861 12.3566 12.0679C12.0747 12.3497 11.6925 12.5081 11.294 12.5081C10.9394 12.5084 10.5961 12.3833 10.3248 12.1549C10.1713 12.0274 9.97351 11.966 9.77484 11.9844C9.57616 12.0027 9.3929 12.0992 9.26537 12.2526C9.13784 12.406 9.07648 12.6039 9.0948 12.8025C9.11311 13.0012 9.20961 13.1845 9.36304 13.312C9.47718 13.4032 9.5977 13.486 9.72369 13.5599C9.66555 13.6932 9.57 13.8067 9.44865 13.8867C9.32729 13.9667 9.18532 14.0098 9.03996 14.0108C8.8407 14.0108 8.64959 13.9316 8.50868 13.7907C8.36778 13.6498 8.28862 13.4587 8.28862 13.2594V11.7567C8.29029 11.4492 8.38628 11.1496 8.56364 10.8983C8.74099 10.6471 8.99117 10.4563 9.28039 10.3517C9.4697 10.2879 9.62592 10.1516 9.71469 9.97264C9.80346 9.79369 9.81751 9.5868 9.75374 9.3975C9.68998 9.20819 9.55362 9.05197 9.37467 8.9632C9.19572 8.87443 8.98884 8.86039 8.79953 8.92415C8.62311 8.99059 8.45226 9.07099 8.28862 9.16458V8C8.29029 7.69246 8.38628 7.39284 8.56364 7.14159C8.74099 6.89033 8.99117 6.69955 9.28039 6.59499C9.37413 6.56341 9.46073 6.51369 9.53524 6.44864C9.60976 6.3836 9.67074 6.30452 9.71469 6.21592C9.75865 6.12731 9.78472 6.03091 9.79142 5.93223C9.79812 5.83355 9.78532 5.73451 9.75374 5.64078C9.72217 5.54704 9.67244 5.46045 9.6074 5.38593C9.54236 5.31141 9.46328 5.25044 9.37467 5.20648C9.28607 5.16253 9.18967 5.13646 9.09099 5.12976C8.9923 5.12306 8.89327 5.13586 8.79953 5.16743C8.62311 5.23387 8.45226 5.31427 8.28862 5.40786V2.74059C8.28862 2.54132 8.36778 2.35022 8.50868 2.20931C8.64959 2.06841 8.8407 1.98925 9.03996 1.98925C9.23923 1.98925 9.43034 2.06841 9.57125 2.20931C9.71215 2.35022 9.79131 2.54132 9.79131 2.74059C9.79023 2.87195 9.75668 3.00101 9.69363 3.11626C9.64365 3.20157 9.61098 3.2959 9.59753 3.39386C9.58407 3.49181 9.59007 3.59145 9.6152 3.68708C9.64033 3.78271 9.68409 3.87244 9.74396 3.95112C9.80383 4.0298 9.87865 4.09589 9.96412 4.1456C10.0499 4.19528 10.1446 4.2275 10.2429 4.24042C10.3411 4.25333 10.441 4.24667 10.5366 4.22083C10.6323 4.19499 10.7219 4.15048 10.8003 4.08986C10.8787 4.02924 10.9444 3.9537 10.9935 3.86761C11.0497 3.74584 11.0974 3.62032 11.1362 3.49194C11.1886 3.48463 11.2417 3.48463 11.294 3.49194C11.4933 3.49194 11.6844 3.57109 11.8253 3.712C11.9662 3.8529 12.0453 4.04401 12.0453 4.24328C12.0442 4.39057 11.9998 4.53427 11.9176 4.65652C11.8562 4.75402 11.7708 4.83419 11.6697 4.88944C11.4963 4.98907 11.3696 5.15349 11.3175 5.34653C11.2654 5.53957 11.292 5.74541 11.3917 5.91878C11.4913 6.09214 11.6557 6.21882 11.8488 6.27096C12.0418 6.32309 12.2476 6.29641 12.421 6.19677C12.5559 6.12382 12.682 6.03558 12.7967 5.9338C13.0473 6.07328 13.2527 6.28154 13.3887 6.534C13.5247 6.78646 13.5857 7.07258 13.5644 7.35856C13.543 7.64454 13.4403 7.91845 13.2683 8.14793C13.0964 8.37742 12.8623 8.55291 12.5938 8.65367H12.5638Z" fill="#15499F"/>
</svg>
