<svg width="39" height="43" viewBox="0 0 39 43" fill="none" xmlns="http://www.w3.org/2000/svg">
<g filter="url(#filter0_d)">
<path d="M14.3752 22.4207C14.4885 22.4796 14.6156 22.5065 14.743 22.4987C14.8704 22.4908 14.9933 22.4483 15.0984 22.3759L24.1988 16.0756C24.2918 16.0111 24.3678 15.9251 24.4203 15.8249C24.4728 15.7247 24.5002 15.6133 24.5002 15.5001C24.5002 15.387 24.4728 15.2756 24.4203 15.1753C24.3678 15.0751 24.2918 14.9891 24.1988 14.9247L15.0984 8.62437C14.9933 8.5517 14.8704 8.50915 14.743 8.50132C14.6155 8.49349 14.4883 8.52068 14.3752 8.57995C14.262 8.63921 14.1673 8.7283 14.1012 8.83756C14.035 8.94682 14 9.07209 14 9.1998V21.8005C14 21.9282 14.0349 22.0536 14.1011 22.1629C14.1672 22.2723 14.262 22.3614 14.3752 22.4207Z" fill="#4FA1EE"/>
</g>
<defs>
<filter id="filter0_d" x="0" y="0.5" width="38.5002" height="42" filterUnits="userSpaceOnUse" color-interpolation-filters="sRGB">
<feFlood flood-opacity="0" result="BackgroundImageFix"/>
<feColorMatrix in="SourceAlpha" type="matrix" values="0 0 0 0 0 0 0 0 0 0 0 0 0 0 0 0 0 0 127 0"/>
<feOffset dy="6"/>
<feGaussianBlur stdDeviation="7"/>
<feColorMatrix type="matrix" values="0 0 0 0 0.2375 0 0 0 0 0.58825 0 0 0 0 1 0 0 0 0.35 0"/>
<feBlend mode="normal" in2="BackgroundImageFix" result="effect1_dropShadow"/>
<feBlend mode="normal" in="SourceGraphic" in2="effect1_dropShadow" result="shape"/>
</filter>
</defs>
</svg>
