<svg width="15" height="16" viewBox="0 0 15 16" fill="none" xmlns="http://www.w3.org/2000/svg">
<path d="M12.75 0.5H2.25C1.65326 0.5 1.08097 0.737053 0.65901 1.15901C0.237053 1.58097 0 2.15326 0 2.75V10.25C0 10.8467 0.237053 11.419 0.65901 11.841C1.08097 12.2629 1.65326 12.5 2.25 12.5H4.5V14H2.25C2.05109 14 1.86032 14.079 1.71967 14.2197C1.57902 14.3603 1.5 14.5511 1.5 14.75C1.5 14.9489 1.57902 15.1397 1.71967 15.2803C1.86032 15.421 2.05109 15.5 2.25 15.5H12.75C12.9489 15.5 13.1397 15.421 13.2803 15.2803C13.421 15.1397 13.5 14.9489 13.5 14.75C13.5 14.5511 13.421 14.3603 13.2803 14.2197C13.1397 14.079 12.9489 14 12.75 14H10.5V12.5H12.75C13.3467 12.5 13.919 12.2629 14.341 11.841C14.7629 11.419 15 10.8467 15 10.25V2.75C15 2.15326 14.7629 1.58097 14.341 1.15901C13.919 0.737053 13.3467 0.5 12.75 0.5ZM9 14H6V12.5H9V14ZM13.5 10.25C13.5 10.4489 13.421 10.6397 13.2803 10.7803C13.1397 10.921 12.9489 11 12.75 11H2.25C2.05109 11 1.86032 10.921 1.71967 10.7803C1.57902 10.6397 1.5 10.4489 1.5 10.25V9.5H13.5V10.25ZM13.5 8H1.5V2.75C1.5 2.55109 1.57902 2.36032 1.71967 2.21967C1.86032 2.07902 2.05109 2 2.25 2H12.75C12.9489 2 13.1397 2.07902 13.2803 2.21967C13.421 2.36032 13.5 2.55109 13.5 2.75V8Z" fill="#15499F"/>
</svg>
