<svg width="26" height="24" viewBox="0 0 26 24" fill="none" xmlns="http://www.w3.org/2000/svg">
<path d="M21.4737 5.05263H17.6842V3.78947C17.6842 2.78444 17.285 1.82058 16.5743 1.10991C15.8636 0.399247 14.8998 0 13.8947 0H11.3684C10.3634 0 9.39952 0.399247 8.68886 1.10991C7.97819 1.82058 7.57895 2.78444 7.57895 3.78947V5.05263H3.78947C2.78444 5.05263 1.82058 5.45188 1.10991 6.16254C0.399247 6.87321 0 7.83707 0 8.8421V20.2105C0 21.2156 0.399247 22.1794 1.10991 22.8901C1.82058 23.6008 2.78444 24 3.78947 24H21.4737C22.4787 24 23.4426 23.6008 24.1532 22.8901C24.8639 22.1794 25.2632 21.2156 25.2632 20.2105V8.8421C25.2632 7.83707 24.8639 6.87321 24.1532 6.16254C23.4426 5.45188 22.4787 5.05263 21.4737 5.05263ZM10.1053 3.78947C10.1053 3.45446 10.2383 3.13317 10.4752 2.89629C10.7121 2.6594 11.0334 2.52632 11.3684 2.52632H13.8947C14.2297 2.52632 14.551 2.6594 14.7879 2.89629C15.0248 3.13317 15.1579 3.45446 15.1579 3.78947V5.05263H10.1053V3.78947ZM22.7368 20.2105C22.7368 20.5455 22.6038 20.8668 22.3669 21.1037C22.13 21.3406 21.8087 21.4737 21.4737 21.4737H3.78947C3.45446 21.4737 3.13317 21.3406 2.89629 21.1037C2.6594 20.8668 2.52632 20.5455 2.52632 20.2105V13.2632C3.75845 13.7519 5.02507 14.1488 6.31579 14.4505V15.1958C6.31579 15.5308 6.44887 15.8521 6.68576 16.089C6.92265 16.3259 7.24394 16.4589 7.57895 16.4589C7.91396 16.4589 8.23525 16.3259 8.47214 16.089C8.70902 15.8521 8.84211 15.5308 8.84211 15.1958V14.9305C10.0981 15.1015 11.364 15.1901 12.6316 15.1958C13.8992 15.1901 15.165 15.1015 16.4211 14.9305V15.1958C16.4211 15.5308 16.5541 15.8521 16.791 16.089C17.0279 16.3259 17.3492 16.4589 17.6842 16.4589C18.0192 16.4589 18.3405 16.3259 18.5774 16.089C18.8143 15.8521 18.9474 15.5308 18.9474 15.1958V14.4505C20.2381 14.1488 21.5047 13.7519 22.7368 13.2632V20.2105ZM22.7368 10.4968C21.5083 11.0154 20.2413 11.4377 18.9474 11.76V11.3684C18.9474 11.0334 18.8143 10.7121 18.5774 10.4752C18.3405 10.2383 18.0192 10.1053 17.6842 10.1053C17.3492 10.1053 17.0279 10.2383 16.791 10.4752C16.5541 10.7121 16.4211 11.0334 16.4211 11.3684V12.3032C13.909 12.6822 11.3542 12.6822 8.84211 12.3032V11.3684C8.84211 11.0334 8.70902 10.7121 8.47214 10.4752C8.23525 10.2383 7.91396 10.1053 7.57895 10.1053C7.24394 10.1053 6.92265 10.2383 6.68576 10.4752C6.44887 10.7121 6.31579 11.0334 6.31579 11.3684V11.7853C5.02184 11.4629 3.75487 11.0406 2.52632 10.5221V8.8421C2.52632 8.50709 2.6594 8.18581 2.89629 7.94892C3.13317 7.71203 3.45446 7.57895 3.78947 7.57895H21.4737C21.8087 7.57895 22.13 7.71203 22.3669 7.94892C22.6038 8.18581 22.7368 8.50709 22.7368 8.8421V10.4968Z" fill="#4FA1EE"/>
</svg>
