<svg width="22" height="24" viewBox="0 0 22 24" fill="none" xmlns="http://www.w3.org/2000/svg">
<path d="M20.6162 9.828C19.753 9.67182 18.8773 9.59549 18.0002 9.6C17.4962 9.6 17.0042 9.6 16.5122 9.696C15.8997 8.87866 15.1178 8.20325 14.2202 7.716C14.9912 6.8739 15.4193 5.77378 15.4202 4.632C15.4202 3.40352 14.9321 2.22535 14.0635 1.35668C13.1948 0.488013 12.0166 0 10.7882 0C9.55968 0 8.38151 0.488013 7.51284 1.35668C6.64417 2.22535 6.15616 3.40352 6.15616 4.632C6.15704 5.77378 6.5851 6.8739 7.35616 7.716C6.46383 8.20579 5.68327 8.87601 5.06416 9.684C4.59616 9.6 4.10416 9.6 3.60016 9.6C2.72227 9.60341 1.84656 9.68777 0.98416 9.852C0.70461 9.90312 0.452274 10.0518 0.272079 10.2715C0.0918835 10.4913 -0.00447504 10.7679 0.000159732 11.052V20.952C-0.000126567 21.1283 0.0384339 21.3025 0.113099 21.4622C0.187764 21.6219 0.2967 21.7632 0.43216 21.876C0.566765 21.9895 0.724697 22.072 0.894752 22.1176C1.06481 22.1632 1.24282 22.1709 1.41616 22.14C2.13425 21.9836 2.86548 21.8952 3.60016 21.876C5.92467 21.8735 8.19876 22.5536 10.1402 23.832L10.2962 23.892C10.4553 23.9611 10.6267 23.9978 10.8002 24C10.9147 23.9986 11.0282 23.9783 11.1362 23.94H11.2202L11.3762 23.88C13.336 22.5688 15.6421 21.8711 18.0002 21.876C18.7333 21.8794 19.4645 21.9517 20.1842 22.092C20.3575 22.1229 20.5355 22.1152 20.7056 22.0696C20.8756 22.024 21.0336 21.9415 21.1682 21.828C21.3036 21.7152 21.4126 21.5739 21.4872 21.4142C21.5619 21.2545 21.6004 21.0803 21.6002 20.904V11.004C21.5991 10.724 21.5002 10.4531 21.3205 10.2383C21.1408 10.0236 20.8916 9.8784 20.6162 9.828ZM10.8002 2.4C11.3623 2.4413 11.888 2.69375 12.2717 3.10666C12.6554 3.51957 12.8686 4.06235 12.8686 4.626C12.8686 5.18965 12.6554 5.73243 12.2717 6.14534C11.888 6.55825 11.3623 6.8107 10.8002 6.852C10.238 6.8107 9.71233 6.55825 9.32865 6.14534C8.94496 5.73243 8.73171 5.18965 8.73171 4.626C8.73171 4.06235 8.94496 3.51957 9.32865 3.10666C9.71233 2.69375 10.238 2.4413 10.8002 2.4ZM9.60016 20.796C7.71937 19.9266 5.67216 19.4762 3.60016 19.476C3.20416 19.476 2.80816 19.476 2.40016 19.536V12C3.40644 11.8874 4.42314 11.9076 5.42416 12.06H5.55616C6.98608 12.3228 8.35634 12.8433 9.60016 13.596V20.796ZM10.8002 11.52C10.2665 11.2122 9.71336 10.9396 9.14416 10.704H9.07216C8.67616 10.548 8.28016 10.392 7.87216 10.272C8.70534 9.60885 9.73538 9.24158 10.8002 9.228C11.8621 9.23473 12.8919 9.59346 13.7282 10.248C12.7095 10.566 11.7278 10.9925 10.8002 11.52ZM19.2002 19.536C16.7361 19.2884 14.2507 19.7027 12.0002 20.736V13.536C13.2462 12.8026 14.6173 12.3062 16.0442 12.072H16.2842C17.2489 11.9218 18.2291 11.8976 19.2002 12V19.536Z" fill="#4FA1EE"/>
</svg>
