<svg width="16" height="17" viewBox="0 0 16 17" fill="none" xmlns="http://www.w3.org/2000/svg">
<path d="M8.03855 11.2803L4.91363 14.4052C4.53529 14.7704 4.03 14.9744 3.5042 14.9744C2.97839 14.9744 2.47311 14.7704 2.09476 14.4052C1.90921 14.2204 1.76197 14.0008 1.66151 13.7589C1.56104 13.517 1.50933 13.2577 1.50933 12.9958C1.50933 12.7339 1.56104 12.4746 1.66151 12.2327C1.76197 11.9908 1.90921 11.7712 2.09476 11.5864L5.21968 8.46146C5.37134 8.3098 5.45654 8.1041 5.45654 7.88963C5.45654 7.67515 5.37134 7.46946 5.21968 7.3178C5.06802 7.16614 4.86233 7.08094 4.64785 7.08094C4.43338 7.08094 4.22768 7.16614 4.07603 7.3178L0.95111 10.4508C0.321582 11.136 -0.0188858 12.0379 0.000809206 12.9682C0.0205042 13.8985 0.398839 14.7852 1.0568 15.4432C1.71477 16.1012 2.60149 16.4795 3.53178 16.4992C4.46207 16.5189 5.36401 16.1784 6.04923 15.5489L9.1822 12.424C9.25729 12.3489 9.31686 12.2597 9.3575 12.1616C9.39814 12.0635 9.41906 11.9583 9.41906 11.8521C9.41906 11.746 9.39814 11.6408 9.3575 11.5427C9.31686 11.4446 9.25729 11.3554 9.1822 11.2803C9.10711 11.2052 9.01796 11.1457 8.91984 11.105C8.82173 11.0644 8.71657 11.0435 8.61037 11.0435C8.50418 11.0435 8.39902 11.0644 8.3009 11.105C8.20279 11.1457 8.11364 11.2052 8.03855 11.2803ZM14.9488 1.55121C14.2713 0.877904 13.3549 0.5 12.3997 0.5C11.4446 0.5 10.5282 0.877904 9.85067 1.55121L6.71771 4.67612C6.64261 4.75121 6.58305 4.84036 6.54241 4.93848C6.50176 5.03659 6.48085 5.14175 6.48085 5.24795C6.48085 5.35415 6.50176 5.4593 6.54241 5.55742C6.58305 5.65553 6.64261 5.74468 6.71771 5.81977C6.7928 5.89487 6.88195 5.95444 6.98006 5.99508C7.07818 6.03572 7.18334 6.05663 7.28953 6.05663C7.39573 6.05663 7.50089 6.03572 7.599 5.99508C7.69712 5.95444 7.78627 5.89487 7.86136 5.81977L10.9863 2.69486C11.3646 2.32972 11.8699 2.12566 12.3957 2.12566C12.9215 2.12566 13.4268 2.32972 13.8051 2.69486C13.9907 2.87969 14.1379 3.09933 14.2384 3.3412C14.3389 3.58307 14.3906 3.84239 14.3906 4.10429C14.3906 4.36619 14.3389 4.62552 14.2384 4.86739C14.1379 5.10925 13.9907 5.3289 13.8051 5.51373L10.6802 8.63864C10.6047 8.71351 10.5448 8.80259 10.5039 8.90073C10.463 8.99888 10.442 9.10415 10.442 9.21047C10.442 9.31679 10.463 9.42206 10.5039 9.5202C10.5448 9.61835 10.6047 9.70742 10.6802 9.7823C10.7551 9.85778 10.8442 9.9177 10.9423 9.95859C11.0405 9.99948 11.1457 10.0205 11.2521 10.0205C11.3584 10.0205 11.4636 9.99948 11.5618 9.95859C11.6599 9.9177 11.749 9.85778 11.8239 9.7823L14.9488 6.64933C15.6221 5.97182 16 5.05544 16 4.10027C16 3.14509 15.6221 2.22872 14.9488 1.55121ZM5.39687 11.1031C5.47212 11.1778 5.56137 11.2368 5.6595 11.2769C5.75762 11.317 5.8627 11.3373 5.96869 11.3367C6.07469 11.3373 6.17976 11.317 6.27789 11.2769C6.37601 11.2368 6.46526 11.1778 6.54052 11.1031L10.503 7.14061C10.6547 6.98896 10.7399 6.78326 10.7399 6.56879C10.7399 6.35431 10.6547 6.14862 10.503 5.99696C10.3514 5.8453 10.1457 5.7601 9.93121 5.7601C9.71674 5.7601 9.51104 5.8453 9.35939 5.99696L5.39687 9.95948C5.32138 10.0344 5.26146 10.1234 5.22057 10.2216C5.17968 10.3197 5.15863 10.425 5.15863 10.5313C5.15863 10.6376 5.17968 10.7429 5.22057 10.841C5.26146 10.9392 5.32138 11.0283 5.39687 11.1031Z" fill="#4FA1EE"/>
</svg>
