<svg width="17" height="17" viewBox="0 0 17 17" fill="none" xmlns="http://www.w3.org/2000/svg">
<path d="M11.3104 9.06746C12.0943 8.45074 12.6664 7.60504 12.9473 6.64801C13.2281 5.69097 13.2037 4.6702 12.8774 3.72771C12.551 2.78521 11.9391 1.96786 11.1266 1.38937C10.3141 0.810873 9.34153 0.5 8.34415 0.5C7.34676 0.5 6.37417 0.810873 5.5617 1.38937C4.74922 1.96786 4.13725 2.78521 3.81093 3.72771C3.48461 4.6702 3.46017 5.69097 3.74101 6.64801C4.02185 7.60504 4.594 8.45074 5.37786 9.06746C4.03469 9.60558 2.86274 10.4981 1.98693 11.6499C1.11112 12.8017 0.564283 14.1696 0.404725 15.6077C0.393175 15.7127 0.40242 15.8189 0.43193 15.9204C0.46144 16.0218 0.510638 16.1164 0.576715 16.1988C0.710164 16.3652 0.904264 16.4718 1.11631 16.4952C1.32837 16.5185 1.541 16.4566 1.70743 16.3232C1.87387 16.1897 1.98048 15.9956 2.0038 15.7836C2.17937 14.2206 2.92462 12.7772 4.09717 11.729C5.26972 10.6807 6.78736 10.1013 8.36014 10.1013C9.93291 10.1013 11.4506 10.6807 12.6231 11.729C13.7957 12.7772 14.5409 14.2206 14.7165 15.7836C14.7382 15.98 14.832 16.1615 14.9796 16.2929C15.1273 16.4243 15.3184 16.4964 15.516 16.4952H15.604C15.8135 16.4711 16.0051 16.3651 16.1369 16.2003C16.2687 16.0356 16.33 15.8254 16.3076 15.6157C16.1472 14.1735 15.5975 12.8021 14.7172 11.6485C13.8368 10.495 12.6592 9.60273 11.3104 9.06746ZM8.34415 8.49978C7.71161 8.49978 7.09328 8.31222 6.56735 7.9608C6.04141 7.60938 5.6315 7.1099 5.38944 6.52551C5.14738 5.94112 5.08404 5.29808 5.20744 4.6777C5.33084 4.05732 5.63544 3.48746 6.08271 3.04019C6.52998 2.59292 7.09984 2.28833 7.72022 2.16492C8.3406 2.04152 8.98364 2.10486 9.56803 2.34692C10.1524 2.58898 10.6519 2.99889 11.0033 3.52483C11.3547 4.05076 11.5423 4.66909 11.5423 5.30163C11.5423 6.14983 11.2054 6.9633 10.6056 7.56307C10.0058 8.16284 9.19235 8.49978 8.34415 8.49978Z" fill="#4FA1EE"/>
</svg>
