<svg width="29" height="22" viewBox="0 0 29 22" fill="none" xmlns="http://www.w3.org/2000/svg">
<path d="M14.6235 11.2847C15.314 10.687 15.8679 9.94773 16.2475 9.11709C16.6271 8.28644 16.8235 7.38386 16.8235 6.47059C16.8235 4.75448 16.1418 3.10866 14.9283 1.89519C13.7149 0.681721 12.069 2.31532e-07 10.3529 2.31532e-07C8.63683 2.31532e-07 6.99101 0.681721 5.77754 1.89519C4.56407 3.10866 3.88235 4.75448 3.88235 6.47059C3.88234 7.38386 4.0788 8.28644 4.4584 9.11709C4.83799 9.94773 5.39184 10.687 6.08235 11.2847C4.27077 12.105 2.73378 13.4297 1.65515 15.1005C0.576523 16.7712 0.00190475 18.7172 0 20.7059C0 21.0491 0.136344 21.3783 0.379038 21.621C0.621732 21.8637 0.950896 22 1.29412 22C1.63734 22 1.9665 21.8637 2.2092 21.621C2.45189 21.3783 2.58824 21.0491 2.58824 20.7059C2.58824 18.6466 3.4063 16.6716 4.86246 15.2154C6.31863 13.7592 8.29361 12.9412 10.3529 12.9412C12.4123 12.9412 14.3873 13.7592 15.8434 15.2154C17.2996 16.6716 18.1176 18.6466 18.1176 20.7059C18.1176 21.0491 18.254 21.3783 18.4967 21.621C18.7394 21.8637 19.0685 22 19.4118 22C19.755 22 20.0842 21.8637 20.3268 21.621C20.5695 21.3783 20.7059 21.0491 20.7059 20.7059C20.704 18.7172 20.1294 16.7712 19.0507 15.1005C17.9721 13.4297 16.4351 12.105 14.6235 11.2847ZM10.3529 10.3529C9.58508 10.3529 8.83447 10.1252 8.19602 9.69865C7.55757 9.27205 7.05996 8.66571 6.76611 7.9563C6.47227 7.24689 6.39538 6.46628 6.54519 5.71318C6.69499 4.96008 7.06475 4.26831 7.6077 3.72535C8.15066 3.18239 8.84243 2.81264 9.59553 2.66283C10.3486 2.51303 11.1292 2.58992 11.8387 2.88376C12.5481 3.17761 13.1544 3.67522 13.581 4.31367C14.0076 4.95212 14.2353 5.70273 14.2353 6.47059C14.2353 7.50025 13.8263 8.48774 13.0982 9.21583C12.3701 9.94391 11.3826 10.3529 10.3529 10.3529ZM22.9576 10.7671C23.7858 9.83443 24.3268 8.68231 24.5155 7.44938C24.7042 6.21645 24.5325 4.95527 24.0211 3.81765C23.5097 2.68002 22.6804 1.71444 21.6331 1.03714C20.5857 0.359829 19.3649 -0.000333365 18.1176 2.31532e-07C17.7744 2.31532e-07 17.4453 0.136344 17.2026 0.379038C16.9599 0.621733 16.8235 0.950897 16.8235 1.29412C16.8235 1.63734 16.9599 1.9665 17.2026 2.2092C17.4453 2.45189 17.7744 2.58824 18.1176 2.58824C19.1473 2.58824 20.1348 2.99727 20.8629 3.72535C21.591 4.45343 22 5.44092 22 6.47059C21.9982 7.15031 21.8179 7.81764 21.4773 8.40584C21.1366 8.99404 20.6475 9.48249 20.0588 9.82235C19.867 9.93303 19.7067 10.0911 19.5934 10.2814C19.4801 10.4718 19.4176 10.688 19.4118 10.9094C19.4063 11.1291 19.457 11.3466 19.5589 11.5413C19.6607 11.736 19.8105 11.9016 19.9941 12.0224L20.4988 12.3588L20.6671 12.4494C22.227 13.1893 23.543 14.3595 24.4601 15.8223C25.3772 17.2851 25.8572 18.9794 25.8435 20.7059C25.8435 21.0491 25.9799 21.3783 26.2226 21.621C26.4653 21.8637 26.7944 22 27.1376 22C27.4809 22 27.81 21.8637 28.0527 21.621C28.2954 21.3783 28.4318 21.0491 28.4318 20.7059C28.4423 18.72 27.9449 16.7643 26.9868 15.0248C26.0287 13.2852 24.6417 11.8196 22.9576 10.7671Z" fill="#4FA1EE"/>
</svg>
