<svg width="17" height="22" viewBox="0 0 17 22" fill="none" xmlns="http://www.w3.org/2000/svg">
<path d="M15.0936 14.156L15.1366 3.56283C15.1445 3.06673 14.9572 2.5874 14.615 2.22806C14.2729 1.86872 13.8034 1.65812 13.3075 1.64163C12.8116 1.62513 12.3291 1.80405 11.9638 2.13986C11.5986 2.47567 11.3798 2.94149 11.3547 3.43701L11.0611 8.12139" stroke="#4FA1EE" stroke-width="2" stroke-linecap="round" stroke-linejoin="round"/>
<path d="M5.1518 13.9499L4.96307 11.2558C4.9297 10.7795 4.70847 10.3359 4.34805 10.0227C3.98762 9.70946 3.51753 9.55223 3.04118 9.5856C2.56484 9.61897 2.12126 9.84021 1.80803 10.2006C1.49479 10.5611 1.33757 11.0311 1.37094 11.5075L1.62258 15.0996" stroke="#4FA1EE" stroke-width="2" stroke-linecap="round" stroke-linejoin="round"/>
<path d="M8.61847 11.9017L8.52411 10.5547C8.49074 10.0783 8.26951 9.63475 7.90908 9.32152C7.54866 9.00829 7.07857 8.85106 6.60222 8.88443C6.12587 8.9178 5.68229 9.13903 5.36906 9.49946C5.05583 9.85988 4.8986 10.33 4.93197 10.8063L5.15216 13.9494" stroke="#4FA1EE" stroke-width="2" stroke-linecap="round" stroke-linejoin="round"/>
<path d="M12.2105 11.6505L12.0847 9.85448C12.0513 9.37814 11.8301 8.93456 11.4696 8.62132C11.1092 8.30809 10.6391 8.15087 10.1628 8.18424C9.68642 8.21761 9.24284 8.43884 8.92961 8.79926C8.61638 9.15969 8.45915 9.62978 8.49252 10.1061L8.61834 11.9022" stroke="#4FA1EE" stroke-width="2" stroke-linecap="round" stroke-linejoin="round"/>
<path d="M15.0931 14.1559C14.8634 17.7818 12.4549 19.7554 8.73527 20.016C5.01562 20.2766 1.8742 18.6917 1.62256 15.0996" stroke="#4FA1EE" stroke-width="2"/>
<path d="M10.3895 15.3873L7.97203 15.5566C7.49568 15.59 7.02559 15.4328 6.66516 15.1196C6.30474 14.8063 6.08351 14.3627 6.05014 13.8864C6.01677 13.4101 6.17399 12.94 6.48722 12.5795C6.80046 12.2191 7.24404 11.9979 7.72038 11.9645L11.3125 11.7129C13.2972 11.5738 15.4795 13.2258 14.7702 15.9828" stroke="#4FA1EE" stroke-width="2" stroke-linecap="round" stroke-linejoin="round"/>
</svg>
