<svg width="82" height="83" viewBox="0 0 82 83" fill="none" xmlns="http://www.w3.org/2000/svg">
<g filter="url(#filter0_d)">
<path d="M51.8 30.7425L38.3 22.795C37.4795 22.3125 36.5488 22.0584 35.6014 22.0581C34.654 22.0579 33.7231 22.3115 32.9024 22.7936C32.0817 23.2756 31.3999 23.9692 30.9255 24.8045C30.4512 25.6398 30.201 26.5875 30.2 27.5525V43.4475C30.201 44.412 30.451 45.3593 30.9249 46.1943C31.3988 47.0293 32.0799 47.7227 32.9 48.205C33.7209 48.6877 34.6521 48.9418 35.6 48.9418C36.5479 48.9418 37.4791 48.6877 38.3 48.205L51.8 40.2575C52.6183 39.774 53.2976 39.0801 53.7697 38.2451C54.2419 37.4102 54.4904 36.4635 54.4904 35.5C54.4904 34.5365 54.2419 33.5898 53.7697 32.7549C53.2976 31.9199 52.6183 31.226 51.8 30.7425ZM49.1 35.5L35.6 43.4475V27.5525L49.1 35.5ZM41 8C35.6599 8 30.4397 9.61285 25.9996 12.6346C21.5595 15.6563 18.0988 19.9512 16.0553 24.9762C14.0117 30.0012 13.477 35.5305 14.5188 40.865C15.5606 46.1995 18.1321 51.0995 21.9081 54.9454C25.6841 58.7914 30.4951 61.4105 35.7326 62.4716C40.9701 63.5327 46.3989 62.9881 51.3325 60.9067C56.2661 58.8253 60.4829 55.3005 63.4497 50.7782C66.4165 46.2558 68 40.939 68 35.5C68 31.8886 67.3016 28.3127 65.9448 24.9762C64.5879 21.6397 62.5991 18.6082 60.0919 16.0546C57.5847 13.501 54.6082 11.4753 51.3325 10.0933C48.0567 8.71131 44.5457 8 41 8ZM41 57.5C36.7279 57.5 32.5518 56.2097 28.9997 53.7923C25.4476 51.3749 22.6791 47.939 21.0442 43.919C19.4094 39.8991 18.9816 35.4756 19.8151 31.208C20.6485 26.9404 22.7057 23.0204 25.7265 19.9436C28.7473 16.8669 32.5961 14.7716 36.7861 13.9227C40.976 13.0738 45.3191 13.5095 49.266 15.1746C53.2129 16.8398 56.5863 19.6596 58.9597 23.2775C61.3332 26.8953 62.6 31.1488 62.6 35.5C62.6 41.3348 60.3243 46.9305 56.2735 51.0563C52.2227 55.1821 46.7287 57.5 41 57.5Z" fill="#4FA1EE"/>
</g>
<defs>
<filter id="filter0_d" x="0" y="0" width="82" height="83" filterUnits="userSpaceOnUse" color-interpolation-filters="sRGB">
<feFlood flood-opacity="0" result="BackgroundImageFix"/>
<feColorMatrix in="SourceAlpha" type="matrix" values="0 0 0 0 0 0 0 0 0 0 0 0 0 0 0 0 0 0 127 0"/>
<feOffset dy="6"/>
<feGaussianBlur stdDeviation="7"/>
<feColorMatrix type="matrix" values="0 0 0 0 0.2375 0 0 0 0 0.58825 0 0 0 0 1 0 0 0 0.35 0"/>
<feBlend mode="normal" in2="BackgroundImageFix" result="effect1_dropShadow"/>
<feBlend mode="normal" in="SourceGraphic" in2="effect1_dropShadow" result="shape"/>
</filter>
</defs>
</svg>
